<?xml version="1.0"?>
<svg xmlns="http://www.w3.org/2000/svg" xmlns:xlink="http://www.w3.org/1999/xlink" xmlns:svgjs="http://svgjs.com/svgjs" version="1.1" width="512" height="512" x="0" y="0" viewBox="0 0 512 512" style="enable-background:new 0 0 512 512" xml:space="preserve" class=""><g transform="matrix(7.34788079488412e-18,0.12000000000000001,0.12000000000000001,-7.34788079488412e-18,230.27996986389178,225.28012580871598)"><link type="text/css" rel="stylesheet" id="dark-mode-custom-link"/><link type="text/css" rel="stylesheet" id="dark-mode-general-link"/><style lang="en" type="text/css" id="dark-mode-custom-style"/><style lang="en" type="text/css" id="dark-mode-native-style"/><path xmlns="http://www.w3.org/2000/svg" d="m391.968 146.624a341.723 341.723 0 0 1 -27.011 131.284 342.818 342.818 0 0 1 -73.712 109.337 343 343 0 0 1 -243.245 100.755 24 24 0 0 1 0-48 294.062 294.062 0 0 0 209.3-86.7 294 294 0 0 0 86.667-206.59l24.033-32.044zm86.432 48.576a24 24 0 0 0 4.8-33.6l-96-128a24 24 0 0 0 -38.4 0l-96 128a24 24 0 1 0 38.4 28.8l76.8-102.4 76.8 102.4a24 24 0 0 0 33.6 4.8z" fill="#139eca" data-original="#000000" style=""/></g></svg>
